<?xml version="1.0" standalone="no"?>
<!DOCTYPE svg PUBLIC "-//W3C//DTD SVG 20010904//EN"
 "http://www.w3.org/TR/2001/REC-SVG-20010904/DTD/svg10.dtd">
<svg version="1.0" xmlns="http://www.w3.org/2000/svg"
 width="250.000000pt" height="250.000000pt" viewBox="0 0 250.000000 250.000000"
 preserveAspectRatio="xMidYMid meet">
<metadata>
Created by potrace 1.14, written by Peter Selinger 2001-2017
</metadata>
<g transform="translate(0.000000,250.000000) scale(0.100000,-0.100000)"
fill="#000000" stroke="none">
<path d="M1178 2145 c-21 -7 -38 -11 -38 -8 0 7 -74 -51 -83 -64 -4 -7 -13
-18 -20 -25 -64 -66 -68 -237 -7 -312 62 -76 126 -108 220 -109 42 0 75 5 84
13 9 7 16 10 16 6 0 -9 83 44 102 67 64 73 83 210 39 295 -26 50 -72 97 -122
123 -47 24 -143 31 -191 14z"/>
<path d="M239 1889 c-84 -13 -140 -56 -164 -125 -7 -21 -11 -51 -8 -68 5 -38
48 -158 94 -261 18 -41 141 -362 165 -429 13 -38 29 -75 35 -82 6 -8 8 -14 5
-14 -4 0 -1 -10 6 -22 7 -13 13 -25 14 -28 0 -3 4 -14 9 -25 4 -11 43 -108 85
-216 76 -192 91 -221 139 -263 13 -12 29 -27 37 -34 7 -6 20 -12 28 -12 9 0
16 -4 16 -8 0 -5 14 -9 30 -10 17 -1 36 -3 43 -3 33 -4 104 13 141 35 75 44
95 76 189 306 95 231 136 325 144 327 5 2 21 -27 37 -64 16 -38 37 -86 47
-108 56 -128 91 -211 93 -220 1 -5 18 -44 38 -86 43 -92 107 -159 167 -178 50
-14 150 -13 170 3 8 6 16 10 17 9 9 -4 44 10 44 18 0 5 5 9 10 9 17 0 60 51
84 100 13 25 42 99 65 165 24 66 47 129 52 140 4 11 17 43 27 70 10 28 23 59
27 70 5 11 9 22 10 25 1 3 7 19 14 35 6 17 21 55 33 85 11 30 27 68 34 85 7
16 10 33 8 37 -3 4 -1 8 3 8 5 0 15 21 22 47 8 25 21 59 29 75 7 16 15 34 16
41 3 13 8 25 44 112 49 118 92 248 92 276 0 98 -91 179 -201 179 -50 0 -129
-25 -129 -41 0 -5 -6 -9 -12 -10 -29 -1 -66 -73 -140 -273 -44 -116 -83 -220
-88 -231 -4 -11 -17 -45 -28 -75 -11 -30 -27 -73 -35 -95 l-15 -40 -60 2 c-89
4 -109 14 -117 61 -9 53 -56 150 -91 188 -68 73 -151 113 -242 116 -66 2 -141
-10 -160 -24 -6 -6 -12 -7 -12 -4 0 11 -86 -54 -116 -86 -30 -34 -68 -117 -85
-184 -14 -54 -31 -63 -122 -67 l-61 -2 -39 105 c-21 58 -48 130 -59 160 -11
30 -26 69 -33 85 -7 17 -32 82 -55 145 -72 197 -108 239 -230 272 -8 2 -36 1
-61 -3z"/>
</g>
</svg>
